<?xml version="1.0" standalone="no"?>
<!DOCTYPE svg PUBLIC "-//W3C//DTD SVG 1.1//EN" "http://www.w3.org/Graphics/SVG/1.1/DTD/svg11.dtd" >
<svg xmlns="http://www.w3.org/2000/svg" xmlns:svg="http://www.w3.org/2000/svg" xmlns:xlink="http://www.w3.org/1999/xlink" viewBox="0 0 1024 1024"><path d="M146.45 629.85Q186.96 614.41 187.51 622.21Q169.22 613.95 206.27 600.81L213.05 590.26L227.28 555.6Q223.48 522.67 235.96 521.78Q211.05 525.44 218.77 518.18Q252.74 481.25 258.88 489.04Q284.88 500.87 355.56 506.53Q422.61 502.72 529.3 495.45Q701.08 514.3 768.04 512.05Q832.29 505.13 814.42 514.69Q824.13 526.9 829.27 514.21Q834.92 531.37 844.31 523.21Q823.84 544.67 822.51 566.95Q822.34 560.35 833.99 561.03Q818.29 578.1 848.74 592.16Q863.17 607.82 881.42 618.95Q881.79 599.11 868.66 623.21Q884.77 616.92 883.75 630.13Q902.3 618.47 922.55 631.35Q922.78 643.11 889.76 658.52Q900.31 679.64 894.69 686.63Q847.37 668.28 753.93 661.05Q646.97 688.23 513.38 685.89Q294.21 666.43 229.45 668.38Q170.19 657.01 180.58 635.27Q157.81 652.79 166.16 661.85Q156.59 635.51 179.4 642.72Q168.07 639.34 170.04 622.07ZM103.12 173.97Q132.62 159.9 177.11 160.18Q200.56 164.35 304.74 185.31H469.98V142.07Q464.22 109.84 469.55 81.43Q507.98 87.52 510.8 61.52Q502.99 95.95 533.07 68.15Q542.46 81.7 563.69 108.43Q542.7 116.17 545.93 116.95L550.16 142.86H699.95Q805.68 161.81 843.29 164.73Q877.56 172.52 867.19 182.53Q898.53 165.24 900.93 199.47Q889.3 193.33 887.14 201.96Q914.22 187.47 920.1 218.72Q910.69 246.02 917.9 275.35Q908.41 354.69 890.28 360.22Q898.46 348.7 857.6 348.75Q855.12 368.38 867.23 375.56Q823.91 378.86 838.41 288.66Q812.89 272.83 813.25 282.97L820.21 237.68H216.9V295.26Q213.78 291.09 203.11 309.77Q196.7 335.07 202.37 349.73Q181.64 361.74 178.26 343.07Q178.15 371.49 175.96 371.17Q169.32 346.69 146.95 356.43Q151.34 338.95 119.62 324.27Q120.59 308.18 126.3 280.32Q129.22 227.04 121.99 201.81Q112.58 171.26 113.7 196.34ZM169.28 725.9Q187.96 714.07 202.75 691.65Q238.71 706.27 398.12 684.25Q498.42 680.59 562.15 713.86Q673.16 711.41 754.45 679.93Q868.72 712.93 860.1 723.36Q876.05 725.51 886.63 705.84Q879.62 749.59 882.45 729.24Q901.89 748.12 866.53 771.66Q876 747.41 853.63 764.02Q823.44 754.34 765.99 774.03Q696.84 756.67 656.11 784.26Q646.8 794.39 634.56 767.11Q627.1 788.03 609.75 789.46Q616.75 809.62 639.63 843.88Q611.1 872.45 633.13 874.48Q618.29 900.19 631.85 920.14Q621.28 929.23 605.87 931.05Q591.21 939.55 579.82 937.74Q574.98 951.56 579.75 954.16Q566.54 931.9 533.58 925.46Q487.89 919.07 478.64 909.14Q467.6 913.51 470.51 881.48Q447.85 878.89 460.03 875.69Q471.52 859.33 476.08 876.14Q494.07 858.05 491.6 835.99Q524.71 834.34 517.18 843.25Q527.73 867.97 515.77 838.04Q526.65 871.31 540.18 840.63Q546.22 872.57 535.8 859.25Q550.17 856.45 550.47 869.42Q546.09 860.03 530 863.89Q542.85 842.79 540.27 833.86Q551.7 798.55 558.79 775.62Q525.01 777.59 546.03 776.3Q550.23 762.99 480.67 760.56Q462.74 754.42 373.62 775.43Q315.98 752.34 256.79 780.82Q251.77 785.19 209.06 788.53Q195.14 765.83 205.71 759.79Q181.55 736.06 158.08 737.41Q193.78 749.97 191.21 721.4Q156.47 748.94 167.58 732.51ZM388.84 280.89Q418.04 262.72 405.97 267.78Q399.56 266.54 414.9 286.27Q430.2 267.89 424.07 278.19Q436.17 308.03 456.78 330.18Q459.97 385.76 513.03 386.55Q527.02 414.85 572.2 413.87Q581.25 423.52 620.49 395.8Q622.14 408.81 607.48 431.69Q648.72 399.48 678.28 409.34Q704.91 388.04 740.43 384.08Q754.7 401.13 793.06 395.66Q796.87 410.38 791.03 385.51Q804.29 387.84 811.42 384.89Q840.35 409.8 827.83 407.19Q845.96 431.45 830.67 433.87Q825.2 452.77 797.78 465.59Q794.35 469.94 716.54 482.56Q693.42 448.61 667.97 465.76Q588.4 469.54 539.75 468.29Q531.35 472.3 492.07 463.9Q465.47 431.94 443.18 442.54Q422.36 428.27 431.36 373.06Q394.56 357.3 393.02 324.18Q401.06 315.93 402.12 322.31Q401.89 277.22 378.41 301.56ZM197.62 441.75Q202.27 422.26 232.67 418.52Q223.38 384.26 224 386.46Q227.93 382.93 264.27 368.92Q253.87 360.32 274.82 313.28Q253.72 313.28 268.24 311.15Q296.41 293.58 322.29 314.87Q286.4 293.23 333.18 325.16Q308.34 293.62 322.25 303.25Q323.5 332.31 330.91 344.2Q323.2 338.23 332.24 336.82Q328.8 357.18 309.52 377.3Q287.54 404.87 308.63 437.84Q265.18 447.85 267.84 451.41Q265.77 452.39 264.08 479.07Q252.13 466.96 229.32 482.05Q216.56 489.07 230.9 457.62Q232.31 474.28 211.03 432.13Q210.9 448.66 205 417.74ZM783.46 619.11V537.61H652.06V606.7ZM286.91 605.34L419.89 591.45V564.57H291.97ZM686.6 299.77Q676.79 300.95 676.03 294.95Q721.24 276.36 718.13 289.04Q719.71 297.72 721.79 270.36Q734.35 276.32 774.1 315.42Q774.93 301.78 782.22 312.76Q795.93 337.85 799.27 354.81Q782.9 366.39 768.3 374.92Q769.66 380.53 748.81 367.7Q730.79 367.44 693.74 335.35Q704.15 355.09 695.93 312.56Q676.21 292.1 708.32 293.25ZM554.42 283.41Q549.55 278.86 577.75 288.47Q569.82 260.6 588.56 257.43Q590.55 260.45 614.3 303.24Q635.98 286.3 625.56 300.18Q623 337.88 639.07 329.54Q637.06 327.74 635.15 358.99Q601.4 346.56 610.9 346.43Q617.07 360.67 596.88 341.5Q577.95 355.17 565.86 335.68Q538.1 318.25 518.13 314.2Q526.51 297.67 521.57 308.16Q537.35 283.39 542.17 295.55ZM579.31 605.57L570.46 552.2L490.72 543.44V609.14Z" fill="black"></path></svg>