<?xml version="1.0" standalone="no"?>
<!DOCTYPE svg PUBLIC "-//W3C//DTD SVG 1.1//EN" "http://www.w3.org/Graphics/SVG/1.1/DTD/svg11.dtd" >
<svg xmlns="http://www.w3.org/2000/svg" xmlns:svg="http://www.w3.org/2000/svg" xmlns:xlink="http://www.w3.org/1999/xlink" viewBox="0 0 1024 1024"><path d="M166.0 626.0Q170.0 617.0 177.0 613.5Q184.0 610.0 199.0 608.0L222.0 606.0L224.0 561.0Q226.0 538.0 228.5 523.5Q231.0 509.0 237.0 504.0Q237.0 495.0 270.5 493.5Q304.0 492.0 337.0 492.0Q403.0 492.0 535.0 495.0Q701.0 497.0 766.0 499.5Q831.0 502.0 832.0 506.0Q838.0 511.0 839.0 519.0Q840.0 527.0 840.0 538.0Q840.0 545.0 840.0 554.0Q838.0 568.0 838.0 579.0Q838.0 593.0 842.5 602.5Q847.0 612.0 865.0 614.0Q874.0 615.0 882.0 619.5Q890.0 624.0 897.0 630.0Q904.0 638.0 904.0 646.0Q904.0 649.0 900.5 656.5Q897.0 664.0 877.0 668.0Q865.0 669.0 764.0 669.0Q663.0 669.0 519.0 668.0Q296.0 666.0 233.0 663.0Q170.0 660.0 170.0 653.0Q163.0 648.0 162.5 644.0Q162.0 640.0 162.0 639.0Q162.0 633.0 166.0 626.0ZM123.0 178.0Q125.0 173.0 163.0 171.0Q201.0 169.0 305.0 169.0H478.0V138.0Q478.0 113.0 485.0 98.5Q492.0 84.0 507.0 79.0Q515.0 76.0 521.0 76.0Q533.0 76.0 544.0 88.5Q555.0 101.0 557.0 135.0L559.0 162.0H717.0Q789.0 162.0 835.0 163.5Q881.0 165.0 886.0 169.0Q892.0 173.0 896.5 181.0Q901.0 189.0 904.0 198.0Q904.0 205.0 905.0 213.0Q904.0 239.0 899.0 289.5Q894.0 340.0 886.0 354.0Q883.0 358.0 875.5 360.5Q868.0 363.0 861.0 363.0Q820.0 363.0 820.0 291.0Q820.0 288.0 820.0 284.0L822.0 239.0H202.0V290.0Q203.0 302.0 203.0 312.0Q203.0 323.0 201.0 332.5Q199.0 342.0 192.0 347.0Q178.0 356.0 165.0 356.0Q163.0 356.0 155.0 355.0Q147.0 354.0 139.0 342.0Q129.0 318.0 124.0 272.0Q119.0 226.0 119.0 207.0Q119.0 186.0 123.0 178.0ZM177.0 731.0Q177.0 709.0 214.0 703.5Q251.0 698.0 411.0 698.0Q497.0 697.0 567.0 697.0Q674.0 697.0 771.0 699.5Q868.0 702.0 877.0 707.0Q888.0 716.0 888.5 723.0Q889.0 730.0 889.0 731.0Q889.0 742.0 881.0 754.0Q876.0 763.0 854.0 765.5Q832.0 768.0 750.0 770.0Q688.0 770.0 658.5 773.0Q629.0 776.0 625.0 779.0Q624.0 785.0 624.0 804.5Q624.0 824.0 625.0 853.0Q626.0 876.0 626.0 891.0Q626.0 902.0 625.0 912.5Q624.0 923.0 616.0 934.0Q604.0 948.0 580.0 948.0Q579.0 948.0 566.0 947.5Q553.0 947.0 514.0 929.0Q492.0 918.0 481.5 910.0Q471.0 902.0 469.0 893.0Q467.0 885.0 467.0 878.0Q467.0 868.0 474.0 858.5Q481.0 849.0 501.0 849.0Q510.0 849.0 517.5 851.0Q525.0 853.0 526.0 855.0Q528.0 858.0 532.5 860.0Q537.0 862.0 541.0 862.0Q548.0 862.0 548.5 856.0Q549.0 850.0 549.0 845.0Q549.0 834.0 548.0 815.0Q546.0 795.0 544.5 781.5Q543.0 768.0 543.0 767.0Q541.0 767.0 493.0 767.5Q445.0 768.0 372.0 770.0Q312.0 771.0 274.0 771.0Q236.0 771.0 214.0 769.5Q192.0 768.0 188.0 759.0Q179.0 752.0 177.5 746.5Q176.0 741.0 176.0 738.0Q176.0 735.0 177.0 731.0ZM395.0 286.0Q399.0 282.0 405.0 280.5Q411.0 279.0 418.0 279.0Q427.0 279.0 434.5 288.0Q442.0 297.0 454.0 322.0Q478.0 372.0 495.0 385.5Q512.0 399.0 559.0 407.0Q593.0 412.0 607.0 412.5Q621.0 413.0 625.0 413.0Q647.0 413.0 676.0 408.0Q701.0 407.0 730.0 404.0Q759.0 401.0 777.0 401.0Q788.0 400.0 796.0 400.0Q808.0 400.0 815.0 402.5Q822.0 405.0 825.0 417.0Q829.0 425.0 829.0 432.0Q829.0 451.0 804.5 458.5Q780.0 466.0 725.0 466.0Q694.0 466.0 654.0 464.0Q589.0 462.0 555.0 458.5Q521.0 455.0 499.0 448.0Q465.0 439.0 450.5 428.0Q436.0 417.0 420.0 392.0Q397.0 354.0 392.0 335.0Q387.0 316.0 387.0 308.0Q387.0 294.0 395.0 286.0ZM213.0 437.0Q215.0 419.0 226.0 403.0Q231.0 396.0 238.5 382.5Q246.0 369.0 251.0 356.0Q258.0 344.0 265.5 332.0Q273.0 320.0 276.0 317.0Q288.0 305.0 304.0 305.0Q305.0 305.0 314.0 305.5Q323.0 306.0 330.0 320.0Q332.0 324.0 332.0 330.0Q332.0 335.0 329.5 346.5Q327.0 358.0 314.0 392.0Q303.0 417.0 294.0 436.0Q285.0 455.0 280.0 462.0Q269.0 471.0 258.5 471.5Q248.0 472.0 245.0 472.0Q230.0 472.0 220.0 466.0Q213.0 457.0 213.0 443.0Q213.0 440.0 213.0 437.0ZM769.0 610.0V551.0H647.0V610.0ZM300.0 606.0 413.0 610.0V551.0H296.0ZM689.0 298.0Q690.0 291.0 694.0 290.0Q702.0 286.0 710.0 286.0Q714.0 286.0 723.0 288.5Q732.0 291.0 755.0 304.0Q784.0 320.0 787.5 328.5Q791.0 337.0 791.0 340.0Q791.0 349.0 777.0 356.0Q761.0 364.0 745.0 364.0Q731.0 364.0 709.5 354.0Q688.0 344.0 687.0 315.0Q687.0 306.0 689.0 298.0ZM552.0 281.0Q567.0 273.0 583.0 273.0Q585.0 273.0 595.5 274.0Q606.0 275.0 618.0 288.0Q633.0 302.0 633.5 310.5Q634.0 319.0 634.0 320.0Q634.0 335.0 622.0 345.0Q614.0 353.0 602.0 353.0Q599.0 353.0 589.0 351.0Q579.0 349.0 557.0 331.0Q539.0 315.0 538.0 307.5Q537.0 300.0 537.0 299.0Q537.0 287.0 552.0 281.0ZM577.0 610.0 573.0 554.0 492.0 551.0V610.0Z" fill="black"></path></svg>